<svg xmlns="http://www.w3.org/2000/svg" xmlns:xlink="http://www.w3.org/1999/xlink" fill="none" version="1.1" width="24" height="24" viewBox="0 0 24 24"><defs><clipPath id="master_svg0_13_2299"><rect x="0" y="0" width="24" height="24" rx="0"/></clipPath><linearGradient x1="1.225000023841858" y1="-0.21875" x2="0" y2="1.03125" id="master_svg1_10_4616"><stop offset="0%" stop-color="#698AFD" stop-opacity="1"/><stop offset="100%" stop-color="#69D9FD" stop-opacity="1"/></linearGradient></defs><g clip-path="url(#master_svg0_13_2299)"><g><path d="M20,22L4,22C3.447715,22,3,21.5523,3,21L3,3C3,2.447715,3.447715,2,4,2L20,2C20.5523,2,21,2.447715,21,3L21,21C21,21.5523,20.5523,22,20,22ZM19,20L19,4L5,4L5,20L19,20ZM7,6L11,6L11,10L7,10L7,6ZM7,12L17,12L17,14L7,14L7,12ZM7,16L17,16L17,18L7,18L7,16ZM13,7L17,7L17,9L13,9L13,7Z" fill="url(#master_svg1_10_4616)" fill-opacity="1"/></g></g></svg>