<svg xmlns="http://www.w3.org/2000/svg" xmlns:xlink="http://www.w3.org/1999/xlink" fill="none" version="1.1" width="40" height="40" viewBox="0 0 40 40"><g style="mix-blend-mode:passthrough"><path d="M33.8438,14.4775C30.4531,15.3837,27.7656,17.1025,25.8438,19.665C23.8594,22.165,22.9062,25.1025,22.9062,28.5556C22.9062,30.7431,23.4219,32.5869,24.5625,34.0087C25.7188,35.415,27.125,36.1806,28.9219,36.1806C30.4531,36.1806,31.7344,35.665,32.7656,34.7744C33.7812,33.8056,34.2969,32.5869,34.2969,31.1181C34.2969,29.6494,33.7812,28.4306,32.8906,27.4775C31.8594,26.5087,30.7031,26.0712,29.3594,26.0712C28.5938,26.0712,28.0938,26.1337,27.7656,26.3212C27.7031,24.79,28.2812,23.2587,29.4375,21.8369C30.5781,20.3056,32.0469,19.29,33.8438,18.7119L33.8438,14.4775ZM18.2969,14.4775C14.9062,15.3837,12.2188,17.1025,10.2969,19.665C8.3125,22.165,7.35938,25.1025,7.35938,28.5556C7.35938,30.7431,7.92188,32.5869,9.07812,34.0087C10.1719,35.415,11.5781,36.1806,13.375,36.1806C14.9062,36.1806,16.25,35.665,17.2656,34.7744C18.2344,33.8056,18.75,32.5869,18.75,31.1181C18.75,29.6494,18.2344,28.4306,17.2656,27.4775C16.3125,26.5087,15.1562,26.0712,13.8125,26.0712C13.0469,26.0712,12.5312,26.1337,12.2188,26.3212C12.1562,24.79,12.7344,23.2587,13.9375,21.8369C15.0938,20.3056,16.5,19.29,18.2969,18.7119L18.2969,14.4775Z" fill="#F7F8FA" fill-opacity="1"/></g></svg>