<svg xmlns="http://www.w3.org/2000/svg" xmlns:xlink="http://www.w3.org/1999/xlink" fill="none" version="1.1" width="24" height="24" viewBox="0 0 24 24"><defs><clipPath id="master_svg0_13_2292"><rect x="0" y="0" width="24" height="24" rx="0"/></clipPath><linearGradient x1="1.225000023841858" y1="-0.21875" x2="0" y2="1.03125" id="master_svg1_10_4616"><stop offset="0%" stop-color="#698AFD" stop-opacity="1"/><stop offset="100%" stop-color="#69D9FD" stop-opacity="1"/></linearGradient></defs><g clip-path="url(#master_svg0_13_2292)"><g><path d="M13,17L13,20L18,20L18,22L6,22L6,20L11,20L11,17L4,17C3.44772,17,3,16.552300000000002,3,16L3,4L2,4L2,2L22,2L22,4L21,4L21,16C21,16.552300000000002,20.5523,17,20,17L13,17ZM5,15L19,15L19,4L5,4L5,15ZM10,6L15,9.5L10,13L10,6Z" fill="url(#master_svg1_10_4616)" fill-opacity="1"/></g></g></svg>