<svg xmlns="http://www.w3.org/2000/svg" xmlns:xlink="http://www.w3.org/1999/xlink" fill="none" version="1.1" width="40" height="40" viewBox="0 0 40 40"><g style="mix-blend-mode:passthrough"><path d="M25.7188,14.4775C24.125,14.4775,22.8438,14.9306,21.875,15.8994C20.8594,16.79,20.3438,18.0087,20.3438,19.54C20.3438,20.9462,20.7969,22.165,21.75,23.1181C22.7031,24.0869,23.8594,24.6025,25.2656,24.6025C25.9688,24.6025,26.4844,24.4619,26.875,24.3369C26.875,25.8681,26.3594,27.3525,25.2031,28.8837C23.9844,30.29,22.5156,31.3212,20.7969,31.9619L20.7969,36.1806C24.125,35.2119,26.8125,33.4931,28.7969,30.9931C30.7031,28.4306,31.7344,25.4931,31.7344,22.1025C31.7344,19.8525,31.1562,18.0087,30.0625,16.6025C28.9219,15.1806,27.4531,14.4775,25.7188,14.4775ZM10.1719,14.4775C8.5625,14.4775,7.28125,14.9306,6.26562,15.8994C5.23438,16.79,4.79688,18.0087,4.79688,19.54C4.79688,20.9462,5.23438,22.165,6.26562,23.1181C7.15625,24.0869,8.3125,24.6025,9.71875,24.6025C10.4219,24.6025,10.9375,24.4619,11.3125,24.3369C11.3125,25.8681,10.75,27.3525,9.59375,28.8837C8.4375,30.29,6.96875,31.3212,5.23438,31.9619L5.23438,36.1806C8.5625,35.2119,11.25,33.4931,13.2344,30.9931C15.1562,28.4306,16.1875,25.4931,16.1875,22.1025C16.1875,19.8525,15.6094,18.0087,14.4531,16.6025C13.2969,15.1806,11.8906,14.4775,10.1719,14.4775Z" fill="#F7F8FA" fill-opacity="1"/></g></svg>