<svg xmlns="http://www.w3.org/2000/svg" xmlns:xlink="http://www.w3.org/1999/xlink" fill="none" version="1.1" width="13" height="45" viewBox="0 0 13 45"><defs><linearGradient x1="0" y1="1" x2="1" y2="1" id="master_svg0_10_3543"><stop offset="24.265702068805695%" stop-color="#698BFD" stop-opacity="1"/><stop offset="99.99997615814209%" stop-color="#69BAFD" stop-opacity="0"/></linearGradient><linearGradient x1="0" y1="1" x2="1" y2="1" id="master_svg1_10_3549"><stop offset="29.285714030265808%" stop-color="#69D9FD" stop-opacity="1"/><stop offset="99.99997615814209%" stop-color="#69BAFD" stop-opacity="0"/></linearGradient><linearGradient x1="0.8455153107643127" y1="0.09114427119493484" x2="0.2637470066547394" y2="0.8797654509544373" id="master_svg2_10_3531"><stop offset="0%" stop-color="#697DFD" stop-opacity="1"/><stop offset="100%" stop-color="#69E4FD" stop-opacity="1"/></linearGradient></defs><g style="mix-blend-mode:passthrough"><g style="mix-blend-mode:passthrough" transform="matrix(0,-1,1,0,-12,24)"><path d="M6.9,18L6,18L6,19L6.9,19L6.9,18ZM10.5,18L8.7,18L8.7,19L10.5,19L10.5,18ZM14.1,18L12.3,18L12.3,19L14.1,19L14.1,18ZM17.7,18L15.9,18L15.9,19L17.7,19L17.7,18ZM21.3,18L19.5,18L19.5,19L21.3,19L21.3,18ZM24,18L23.1,18L23.1,19L24,19L24,18Z" fill-rule="evenodd" fill="url(#master_svg0_10_3543)" fill-opacity="1"/></g><g style="mix-blend-mode:passthrough" transform="matrix(0,1,1,0,-21,21)"><path d="M6.9,27L6,27L6,28L6.9,28L6.9,27ZM10.5,27L8.7,27L8.7,28L10.5,28L10.5,27ZM14.1,27L12.3,27L12.3,28L14.1,28L14.1,27ZM17.7,27L15.9,27L15.9,28L17.7,28L17.7,27ZM21.3,27L19.5,27L19.5,28L21.3,28L21.3,27ZM24,27L23.1,27L23.1,28L24,28L24,27Z" fill-rule="evenodd" fill="url(#master_svg1_10_3549)" fill-opacity="1"/></g><g style="mix-blend-mode:passthrough"><path d="M13,22.5C13,26.0899,10.0899,29,6.5,29C2.91015,29,0,26.0899,0,22.5C0,18.91015,2.91015,16,6.5,16C10.0899,16,13,18.91015,13,22.5ZM11,22.5Q11,20.63604,9.68198,19.31802Q8.36396,18,6.5,18Q4.63604,18,3.31802,19.31802Q2,20.63604,2,22.5Q2,24.36396,3.31802,25.68198Q4.63604,27,6.5,27Q8.36396,27,9.68198,25.68198Q11,24.36396,11,22.5Z" fill-rule="evenodd" fill="url(#master_svg2_10_3531)" fill-opacity="1"/></g></g></svg>